<mxfile host="app.diagrams.net" modified="2024-05-21T06:03:35.907Z" agent="Mozilla/5.0 (Windows NT 10.0; Win64; x64) AppleWebKit/537.36 (KHTML, like Gecko) Chrome/124.0.0.0 Safari/537.36" etag="7pDFMPfgIXlioP2gCa2l" version="24.4.4" type="device">
  <diagram name="P치gina-1" id="2tiB-S2RtjWKes5oXIlC">
    <mxGraphModel dx="819" dy="426" grid="1" gridSize="10" guides="1" tooltips="1" connect="1" arrows="1" fold="1" page="1" pageScale="1" pageWidth="850" pageHeight="1100" math="0" shadow="0">
      <root>
        <mxCell id="0" />
        <mxCell id="1" parent="0" />
        <mxCell id="WjLnyKZmsit7DUfsPy70-74" value="" style="rounded=0;whiteSpace=wrap;html=1;strokeColor=none;" vertex="1" parent="1">
          <mxGeometry x="100" y="30" width="480" height="500" as="geometry" />
        </mxCell>
        <mxCell id="WjLnyKZmsit7DUfsPy70-73" value="" style="rounded=0;whiteSpace=wrap;html=1;fillColor=#f5f5f5;fontColor=#333333;strokeColor=#666666;" vertex="1" parent="1">
          <mxGeometry x="180" y="40" width="270" height="480" as="geometry" />
        </mxCell>
        <mxCell id="WjLnyKZmsit7DUfsPy70-1" value="Usuario" style="shape=umlActor;verticalLabelPosition=bottom;verticalAlign=top;html=1;outlineConnect=0;" vertex="1" parent="1">
          <mxGeometry x="120" y="70" width="30" height="60" as="geometry" />
        </mxCell>
        <mxCell id="WjLnyKZmsit7DUfsPy70-3" value="Iniciar sesi칩n" style="ellipse;whiteSpace=wrap;html=1;fontSize=10;fillColor=#ffcc99;strokeColor=#36393d;" vertex="1" parent="1">
          <mxGeometry x="200" y="50" width="100" height="30" as="geometry" />
        </mxCell>
        <mxCell id="WjLnyKZmsit7DUfsPy70-4" value="Validar usuario y contrase침a" style="ellipse;whiteSpace=wrap;html=1;fontSize=10;fillColor=#ffcc99;strokeColor=#36393d;" vertex="1" parent="1">
          <mxGeometry x="330" y="60" width="110" height="40" as="geometry" />
        </mxCell>
        <mxCell id="WjLnyKZmsit7DUfsPy70-5" value="users.txt" style="ellipse;whiteSpace=wrap;html=1;fontSize=10;fillColor=#ffcc99;strokeColor=#36393d;" vertex="1" parent="1">
          <mxGeometry x="340" y="117" width="90" height="30" as="geometry" />
        </mxCell>
        <mxCell id="WjLnyKZmsit7DUfsPy70-6" value="Usuario encontrado" style="ellipse;whiteSpace=wrap;html=1;fontSize=10;fillColor=#ffcc99;strokeColor=#36393d;" vertex="1" parent="1">
          <mxGeometry x="210" y="90" width="80" height="40" as="geometry" />
        </mxCell>
        <mxCell id="WjLnyKZmsit7DUfsPy70-7" value="Usuario no encontrado" style="ellipse;whiteSpace=wrap;html=1;fontSize=10;fillColor=#ffcc99;strokeColor=#36393d;" vertex="1" parent="1">
          <mxGeometry x="210" y="140" width="80" height="40" as="geometry" />
        </mxCell>
        <mxCell id="WjLnyKZmsit7DUfsPy70-8" value="Cliente" style="shape=umlActor;verticalLabelPosition=bottom;verticalAlign=top;html=1;outlineConnect=0;" vertex="1" parent="1">
          <mxGeometry x="120" y="280" width="30" height="60" as="geometry" />
        </mxCell>
        <mxCell id="WjLnyKZmsit7DUfsPy70-9" value="Operador" style="shape=umlActor;verticalLabelPosition=bottom;verticalAlign=top;html=1;outlineConnect=0;" vertex="1" parent="1">
          <mxGeometry x="120" y="410" width="30" height="60" as="geometry" />
        </mxCell>
        <mxCell id="WjLnyKZmsit7DUfsPy70-10" value="Registrar usuario" style="ellipse;whiteSpace=wrap;html=1;fontSize=10;fillColor=#ffcc99;strokeColor=#36393d;" vertex="1" parent="1">
          <mxGeometry x="200" y="190" width="100" height="30" as="geometry" />
        </mxCell>
        <mxCell id="WjLnyKZmsit7DUfsPy70-11" value="Guardar informaci칩n" style="ellipse;whiteSpace=wrap;html=1;fontSize=10;fillColor=#ffcc99;strokeColor=#36393d;" vertex="1" parent="1">
          <mxGeometry x="330" y="163" width="110" height="40" as="geometry" />
        </mxCell>
        <mxCell id="WjLnyKZmsit7DUfsPy70-12" value="Seleccionar&lt;div style=&quot;font-size: 10px;&quot;&gt;producto&lt;/div&gt;" style="ellipse;whiteSpace=wrap;html=1;fontSize=10;fillColor=#ffff88;strokeColor=#36393d;" vertex="1" parent="1">
          <mxGeometry x="202" y="245" width="80" height="30" as="geometry" />
        </mxCell>
        <mxCell id="WjLnyKZmsit7DUfsPy70-13" value="Consultar productos" style="ellipse;whiteSpace=wrap;html=1;fontSize=10;fillColor=#ffff88;strokeColor=#36393d;" vertex="1" parent="1">
          <mxGeometry x="340" y="240" width="90" height="40" as="geometry" />
        </mxCell>
        <mxCell id="WjLnyKZmsit7DUfsPy70-14" value="products.txt" style="ellipse;whiteSpace=wrap;html=1;fontSize=10;fillColor=#ffff88;strokeColor=#36393d;" vertex="1" parent="1">
          <mxGeometry x="340" y="295" width="90" height="30" as="geometry" />
        </mxCell>
        <mxCell id="WjLnyKZmsit7DUfsPy70-15" value="Guardar producto&lt;div style=&quot;font-size: 10px;&quot;&gt;en el carrito&lt;/div&gt;" style="ellipse;whiteSpace=wrap;html=1;fontSize=10;fillColor=#ffff88;strokeColor=#36393d;" vertex="1" parent="1">
          <mxGeometry x="200" y="346" width="100" height="30" as="geometry" />
        </mxCell>
        <mxCell id="WjLnyKZmsit7DUfsPy70-16" value="Guardar producto" style="ellipse;whiteSpace=wrap;html=1;fontSize=10;fillColor=#ffff88;strokeColor=#36393d;" vertex="1" parent="1">
          <mxGeometry x="340" y="333" width="80" height="30" as="geometry" />
        </mxCell>
        <mxCell id="WjLnyKZmsit7DUfsPy70-17" value="onlinecar.txt" style="ellipse;whiteSpace=wrap;html=1;fontSize=10;fillColor=#ffff88;strokeColor=#36393d;" vertex="1" parent="1">
          <mxGeometry x="242" y="295" width="90" height="30" as="geometry" />
        </mxCell>
        <mxCell id="WjLnyKZmsit7DUfsPy70-18" value="Registrar&lt;div style=&quot;font-size: 10px;&quot;&gt;producto&lt;/div&gt;" style="ellipse;whiteSpace=wrap;html=1;fontSize=10;fillColor=#ffcccc;strokeColor=#36393d;" vertex="1" parent="1">
          <mxGeometry x="200" y="400" width="100" height="30" as="geometry" />
        </mxCell>
        <mxCell id="WjLnyKZmsit7DUfsPy70-19" value="" style="endArrow=none;dashed=1;html=1;dashPattern=1 3;strokeWidth=2;rounded=0;" edge="1" parent="1">
          <mxGeometry width="50" height="50" relative="1" as="geometry">
            <mxPoint x="170" y="230" as="sourcePoint" />
            <mxPoint x="460" y="230" as="targetPoint" />
          </mxGeometry>
        </mxCell>
        <mxCell id="WjLnyKZmsit7DUfsPy70-20" value="" style="endArrow=none;dashed=1;html=1;dashPattern=1 3;strokeWidth=2;rounded=0;" edge="1" parent="1">
          <mxGeometry width="50" height="50" relative="1" as="geometry">
            <mxPoint x="170" y="390" as="sourcePoint" />
            <mxPoint x="460" y="390" as="targetPoint" />
          </mxGeometry>
        </mxCell>
        <mxCell id="WjLnyKZmsit7DUfsPy70-21" value="Modificar&lt;div style=&quot;font-size: 10px;&quot;&gt;producto&lt;/div&gt;" style="ellipse;whiteSpace=wrap;html=1;fontSize=10;fillColor=#ffcccc;strokeColor=#36393d;" vertex="1" parent="1">
          <mxGeometry x="200" y="440" width="100" height="30" as="geometry" />
        </mxCell>
        <mxCell id="WjLnyKZmsit7DUfsPy70-22" value="Desactivar&lt;div style=&quot;font-size: 10px;&quot;&gt;producto&lt;/div&gt;" style="ellipse;whiteSpace=wrap;html=1;fontSize=10;fillColor=#ffcccc;strokeColor=#36393d;" vertex="1" parent="1">
          <mxGeometry x="202" y="480" width="100" height="30" as="geometry" />
        </mxCell>
        <mxCell id="WjLnyKZmsit7DUfsPy70-23" value="Guardar producto" style="ellipse;whiteSpace=wrap;html=1;fontSize=10;fillColor=#ffcccc;strokeColor=#36393d;" vertex="1" parent="1">
          <mxGeometry x="340" y="450" width="100" height="30" as="geometry" />
        </mxCell>
        <mxCell id="WjLnyKZmsit7DUfsPy70-24" value="products.txt" style="ellipse;whiteSpace=wrap;html=1;fontSize=10;fillColor=#ffcccc;strokeColor=#36393d;" vertex="1" parent="1">
          <mxGeometry x="355" y="400" width="70" height="30" as="geometry" />
        </mxCell>
        <mxCell id="WjLnyKZmsit7DUfsPy70-25" value="" style="endArrow=block;endSize=5;endFill=0;html=1;rounded=0;exitX=0.5;exitY=1;exitDx=0;exitDy=0;entryX=0.5;entryY=0;entryDx=0;entryDy=0;fontSize=10;strokeWidth=1;" edge="1" parent="1" source="WjLnyKZmsit7DUfsPy70-4" target="WjLnyKZmsit7DUfsPy70-5">
          <mxGeometry width="160" relative="1" as="geometry">
            <mxPoint x="210" y="140" as="sourcePoint" />
            <mxPoint x="370" y="140" as="targetPoint" />
          </mxGeometry>
        </mxCell>
        <mxCell id="WjLnyKZmsit7DUfsPy70-27" value="" style="endArrow=block;endSize=5;endFill=0;html=1;rounded=0;exitX=0.5;exitY=0;exitDx=0;exitDy=0;entryX=0.5;entryY=1;entryDx=0;entryDy=0;fontSize=10;strokeWidth=1;" edge="1" parent="1" source="WjLnyKZmsit7DUfsPy70-11" target="WjLnyKZmsit7DUfsPy70-5">
          <mxGeometry width="160" relative="1" as="geometry">
            <mxPoint x="460" y="155" as="sourcePoint" />
            <mxPoint x="460" y="185" as="targetPoint" />
          </mxGeometry>
        </mxCell>
        <mxCell id="WjLnyKZmsit7DUfsPy70-29" value="extend" style="text;html=1;align=center;verticalAlign=middle;whiteSpace=wrap;rounded=0;fontSize=6;" vertex="1" parent="1">
          <mxGeometry x="385" y="101" width="30" height="10" as="geometry" />
        </mxCell>
        <mxCell id="WjLnyKZmsit7DUfsPy70-30" value="extend" style="text;html=1;align=center;verticalAlign=middle;whiteSpace=wrap;rounded=0;fontSize=6;" vertex="1" parent="1">
          <mxGeometry x="386" y="150" width="30" height="10" as="geometry" />
        </mxCell>
        <mxCell id="WjLnyKZmsit7DUfsPy70-31" value="" style="endArrow=block;dashed=1;endFill=0;endSize=5;html=1;rounded=0;exitX=1;exitY=0.5;exitDx=0;exitDy=0;entryX=0;entryY=0.5;entryDx=0;entryDy=0;" edge="1" parent="1" source="WjLnyKZmsit7DUfsPy70-3" target="WjLnyKZmsit7DUfsPy70-4">
          <mxGeometry width="160" relative="1" as="geometry">
            <mxPoint x="210" y="170" as="sourcePoint" />
            <mxPoint x="370" y="170" as="targetPoint" />
          </mxGeometry>
        </mxCell>
        <mxCell id="WjLnyKZmsit7DUfsPy70-33" value="implement" style="text;html=1;align=center;verticalAlign=middle;whiteSpace=wrap;rounded=0;fontSize=6;rotation=25;" vertex="1" parent="1">
          <mxGeometry x="302" y="58" width="30" height="10" as="geometry" />
        </mxCell>
        <mxCell id="WjLnyKZmsit7DUfsPy70-34" value="" style="endArrow=block;dashed=1;endFill=0;endSize=5;html=1;rounded=0;entryX=1;entryY=0.5;entryDx=0;entryDy=0;exitX=0;exitY=1;exitDx=0;exitDy=0;" edge="1" parent="1" source="WjLnyKZmsit7DUfsPy70-4" target="WjLnyKZmsit7DUfsPy70-6">
          <mxGeometry width="160" relative="1" as="geometry">
            <mxPoint x="310" y="80" as="sourcePoint" />
            <mxPoint x="340" y="90" as="targetPoint" />
          </mxGeometry>
        </mxCell>
        <mxCell id="WjLnyKZmsit7DUfsPy70-35" value="" style="endArrow=block;dashed=1;endFill=0;endSize=5;html=1;rounded=0;entryX=1;entryY=0.5;entryDx=0;entryDy=0;exitX=0;exitY=1;exitDx=0;exitDy=0;" edge="1" parent="1" source="WjLnyKZmsit7DUfsPy70-4" target="WjLnyKZmsit7DUfsPy70-7">
          <mxGeometry width="160" relative="1" as="geometry">
            <mxPoint x="356" y="104" as="sourcePoint" />
            <mxPoint x="300" y="120" as="targetPoint" />
          </mxGeometry>
        </mxCell>
        <mxCell id="WjLnyKZmsit7DUfsPy70-36" value="implement" style="text;html=1;align=center;verticalAlign=middle;whiteSpace=wrap;rounded=0;fontSize=6;rotation=-30;" vertex="1" parent="1">
          <mxGeometry x="303" y="107" width="30" height="10" as="geometry" />
        </mxCell>
        <mxCell id="WjLnyKZmsit7DUfsPy70-38" value="" style="endArrow=block;dashed=1;endFill=0;endSize=5;html=1;rounded=0;exitX=1;exitY=0.5;exitDx=0;exitDy=0;entryX=0;entryY=0.5;entryDx=0;entryDy=0;" edge="1" parent="1" source="WjLnyKZmsit7DUfsPy70-10" target="WjLnyKZmsit7DUfsPy70-11">
          <mxGeometry width="160" relative="1" as="geometry">
            <mxPoint x="310" y="75" as="sourcePoint" />
            <mxPoint x="340" y="90" as="targetPoint" />
          </mxGeometry>
        </mxCell>
        <mxCell id="WjLnyKZmsit7DUfsPy70-39" value="implement" style="text;html=1;align=center;verticalAlign=middle;whiteSpace=wrap;rounded=0;fontSize=6;rotation=-40;" vertex="1" parent="1">
          <mxGeometry x="294" y="181" width="30" height="10" as="geometry" />
        </mxCell>
        <mxCell id="WjLnyKZmsit7DUfsPy70-40" value="" style="endArrow=block;dashed=1;endFill=0;endSize=5;html=1;rounded=0;exitX=1;exitY=0.5;exitDx=0;exitDy=0;entryX=0;entryY=0.5;entryDx=0;entryDy=0;" edge="1" parent="1" source="WjLnyKZmsit7DUfsPy70-12" target="WjLnyKZmsit7DUfsPy70-13">
          <mxGeometry width="160" relative="1" as="geometry">
            <mxPoint x="310" y="215" as="sourcePoint" />
            <mxPoint x="340" y="220" as="targetPoint" />
          </mxGeometry>
        </mxCell>
        <mxCell id="WjLnyKZmsit7DUfsPy70-41" value="implement" style="text;html=1;align=center;verticalAlign=middle;whiteSpace=wrap;rounded=0;fontSize=6;rotation=0;" vertex="1" parent="1">
          <mxGeometry x="294" y="245" width="30" height="10" as="geometry" />
        </mxCell>
        <mxCell id="WjLnyKZmsit7DUfsPy70-42" value="" style="endArrow=block;endSize=5;endFill=0;html=1;rounded=0;exitX=0.5;exitY=1;exitDx=0;exitDy=0;entryX=0.5;entryY=0;entryDx=0;entryDy=0;fontSize=10;strokeWidth=1;" edge="1" parent="1" source="WjLnyKZmsit7DUfsPy70-13" target="WjLnyKZmsit7DUfsPy70-14">
          <mxGeometry width="160" relative="1" as="geometry">
            <mxPoint x="450" y="275" as="sourcePoint" />
            <mxPoint x="450" y="305" as="targetPoint" />
          </mxGeometry>
        </mxCell>
        <mxCell id="WjLnyKZmsit7DUfsPy70-44" value="extend" style="text;html=1;align=center;verticalAlign=middle;whiteSpace=wrap;rounded=0;fontSize=6;" vertex="1" parent="1">
          <mxGeometry x="390" y="280" width="30" height="10" as="geometry" />
        </mxCell>
        <mxCell id="WjLnyKZmsit7DUfsPy70-45" value="extend" style="text;html=1;align=center;verticalAlign=middle;whiteSpace=wrap;rounded=0;fontSize=6;" vertex="1" parent="1">
          <mxGeometry x="333" y="323" width="30" height="10" as="geometry" />
        </mxCell>
        <mxCell id="WjLnyKZmsit7DUfsPy70-47" value="" style="endArrow=block;endSize=5;endFill=0;html=1;rounded=0;exitX=0;exitY=0;exitDx=0;exitDy=0;entryX=1;entryY=1;entryDx=0;entryDy=0;fontSize=10;strokeWidth=1;" edge="1" parent="1" source="WjLnyKZmsit7DUfsPy70-16" target="WjLnyKZmsit7DUfsPy70-17">
          <mxGeometry width="160" relative="1" as="geometry">
            <mxPoint x="384.81" y="390" as="sourcePoint" />
            <mxPoint x="384.81" y="410" as="targetPoint" />
          </mxGeometry>
        </mxCell>
        <mxCell id="WjLnyKZmsit7DUfsPy70-48" value="" style="endArrow=block;dashed=1;endFill=0;endSize=5;html=1;rounded=0;exitX=1;exitY=0.5;exitDx=0;exitDy=0;entryX=0;entryY=0.5;entryDx=0;entryDy=0;" edge="1" parent="1" source="WjLnyKZmsit7DUfsPy70-15" target="WjLnyKZmsit7DUfsPy70-16">
          <mxGeometry width="160" relative="1" as="geometry">
            <mxPoint x="290" y="295" as="sourcePoint" />
            <mxPoint x="350" y="280" as="targetPoint" />
          </mxGeometry>
        </mxCell>
        <mxCell id="WjLnyKZmsit7DUfsPy70-49" value="implement" style="text;html=1;align=center;verticalAlign=middle;whiteSpace=wrap;rounded=0;fontSize=6;rotation=-15;" vertex="1" parent="1">
          <mxGeometry x="300" y="343" width="30" height="10" as="geometry" />
        </mxCell>
        <mxCell id="WjLnyKZmsit7DUfsPy70-50" value="" style="endArrow=block;dashed=1;endFill=0;endSize=5;html=1;rounded=0;exitX=1;exitY=0.5;exitDx=0;exitDy=0;entryX=0;entryY=0;entryDx=0;entryDy=0;" edge="1" parent="1" source="WjLnyKZmsit7DUfsPy70-18" target="WjLnyKZmsit7DUfsPy70-23">
          <mxGeometry width="160" relative="1" as="geometry">
            <mxPoint x="290" y="350" as="sourcePoint" />
            <mxPoint x="335" y="370" as="targetPoint" />
          </mxGeometry>
        </mxCell>
        <mxCell id="WjLnyKZmsit7DUfsPy70-51" value="" style="endArrow=block;dashed=1;endFill=0;endSize=5;html=1;rounded=0;exitX=1;exitY=0.5;exitDx=0;exitDy=0;entryX=0;entryY=0.5;entryDx=0;entryDy=0;" edge="1" parent="1" source="WjLnyKZmsit7DUfsPy70-21" target="WjLnyKZmsit7DUfsPy70-23">
          <mxGeometry width="160" relative="1" as="geometry">
            <mxPoint x="310" y="425" as="sourcePoint" />
            <mxPoint x="360" y="464" as="targetPoint" />
          </mxGeometry>
        </mxCell>
        <mxCell id="WjLnyKZmsit7DUfsPy70-52" value="" style="endArrow=block;dashed=1;endFill=0;endSize=5;html=1;rounded=0;exitX=1;exitY=0.5;exitDx=0;exitDy=0;entryX=0;entryY=0.5;entryDx=0;entryDy=0;" edge="1" parent="1" source="WjLnyKZmsit7DUfsPy70-22">
          <mxGeometry width="160" relative="1" as="geometry">
            <mxPoint x="310" y="475" as="sourcePoint" />
            <mxPoint x="350" y="475" as="targetPoint" />
          </mxGeometry>
        </mxCell>
        <mxCell id="WjLnyKZmsit7DUfsPy70-53" value="" style="endArrow=block;endSize=5;endFill=0;html=1;rounded=0;exitX=0.5;exitY=0;exitDx=0;exitDy=0;entryX=0.5;entryY=1;entryDx=0;entryDy=0;fontSize=10;strokeWidth=1;" edge="1" parent="1" source="WjLnyKZmsit7DUfsPy70-23" target="WjLnyKZmsit7DUfsPy70-24">
          <mxGeometry width="160" relative="1" as="geometry">
            <mxPoint x="430" y="420" as="sourcePoint" />
            <mxPoint x="420" y="440" as="targetPoint" />
          </mxGeometry>
        </mxCell>
        <mxCell id="WjLnyKZmsit7DUfsPy70-54" value="extend" style="text;html=1;align=center;verticalAlign=middle;whiteSpace=wrap;rounded=0;fontSize=6;" vertex="1" parent="1">
          <mxGeometry x="387" y="437" width="30" height="10" as="geometry" />
        </mxCell>
        <mxCell id="WjLnyKZmsit7DUfsPy70-55" value="implement" style="text;html=1;align=center;verticalAlign=middle;whiteSpace=wrap;rounded=0;fontSize=6;rotation=30;" vertex="1" parent="1">
          <mxGeometry x="316" y="424" width="30" height="10" as="geometry" />
        </mxCell>
        <mxCell id="WjLnyKZmsit7DUfsPy70-56" value="implement" style="text;html=1;align=center;verticalAlign=middle;whiteSpace=wrap;rounded=0;fontSize=6;rotation=20;" vertex="1" parent="1">
          <mxGeometry x="302" y="448" width="30" height="10" as="geometry" />
        </mxCell>
        <mxCell id="WjLnyKZmsit7DUfsPy70-57" value="implement" style="text;html=1;align=center;verticalAlign=middle;whiteSpace=wrap;rounded=0;fontSize=6;rotation=-20;" vertex="1" parent="1">
          <mxGeometry x="305" y="477" width="30" height="10" as="geometry" />
        </mxCell>
        <mxCell id="WjLnyKZmsit7DUfsPy70-58" value="" style="shape=image;verticalLabelPosition=bottom;labelBackgroundColor=default;verticalAlign=top;aspect=fixed;imageAspect=0;image=https://cdn.icon-icons.com/icons2/1852/PNG/512/iconfinder-server-4417119_116634.png;" vertex="1" parent="1">
          <mxGeometry x="480" y="200" width="110" height="110" as="geometry" />
        </mxCell>
        <mxCell id="WjLnyKZmsit7DUfsPy70-59" value="Servidor" style="text;html=1;align=center;verticalAlign=middle;whiteSpace=wrap;rounded=0;" vertex="1" parent="1">
          <mxGeometry x="508" y="310" width="60" height="30" as="geometry" />
        </mxCell>
        <mxCell id="WjLnyKZmsit7DUfsPy70-61" value="" style="endArrow=none;html=1;rounded=0;entryX=1;entryY=0.5;entryDx=0;entryDy=0;exitX=0.25;exitY=0;exitDx=0;exitDy=0;" edge="1" parent="1" source="WjLnyKZmsit7DUfsPy70-58" target="WjLnyKZmsit7DUfsPy70-4">
          <mxGeometry width="50" height="50" relative="1" as="geometry">
            <mxPoint x="390" y="300" as="sourcePoint" />
            <mxPoint x="440" y="250" as="targetPoint" />
          </mxGeometry>
        </mxCell>
        <mxCell id="WjLnyKZmsit7DUfsPy70-62" value="" style="endArrow=none;html=1;rounded=0;entryX=1;entryY=0.5;entryDx=0;entryDy=0;exitX=0;exitY=0;exitDx=0;exitDy=0;" edge="1" parent="1" source="WjLnyKZmsit7DUfsPy70-58" target="WjLnyKZmsit7DUfsPy70-11">
          <mxGeometry width="50" height="50" relative="1" as="geometry">
            <mxPoint x="390" y="300" as="sourcePoint" />
            <mxPoint x="440" y="250" as="targetPoint" />
          </mxGeometry>
        </mxCell>
        <mxCell id="WjLnyKZmsit7DUfsPy70-63" value="" style="endArrow=none;html=1;rounded=0;entryX=0;entryY=0.5;entryDx=0;entryDy=0;exitX=1;exitY=0.5;exitDx=0;exitDy=0;" edge="1" parent="1" source="WjLnyKZmsit7DUfsPy70-13" target="WjLnyKZmsit7DUfsPy70-58">
          <mxGeometry width="50" height="50" relative="1" as="geometry">
            <mxPoint x="390" y="300" as="sourcePoint" />
            <mxPoint x="440" y="250" as="targetPoint" />
          </mxGeometry>
        </mxCell>
        <mxCell id="WjLnyKZmsit7DUfsPy70-64" value="" style="endArrow=none;html=1;rounded=0;entryX=0;entryY=0.75;entryDx=0;entryDy=0;exitX=1;exitY=0.5;exitDx=0;exitDy=0;" edge="1" parent="1" source="WjLnyKZmsit7DUfsPy70-16" target="WjLnyKZmsit7DUfsPy70-58">
          <mxGeometry width="50" height="50" relative="1" as="geometry">
            <mxPoint x="390" y="300" as="sourcePoint" />
            <mxPoint x="440" y="250" as="targetPoint" />
          </mxGeometry>
        </mxCell>
        <mxCell id="WjLnyKZmsit7DUfsPy70-65" value="" style="endArrow=none;html=1;rounded=0;exitX=1;exitY=0.5;exitDx=0;exitDy=0;entryX=0;entryY=1;entryDx=0;entryDy=0;" edge="1" parent="1" source="WjLnyKZmsit7DUfsPy70-23" target="WjLnyKZmsit7DUfsPy70-58">
          <mxGeometry width="50" height="50" relative="1" as="geometry">
            <mxPoint x="390" y="350" as="sourcePoint" />
            <mxPoint x="440" y="300" as="targetPoint" />
          </mxGeometry>
        </mxCell>
        <mxCell id="WjLnyKZmsit7DUfsPy70-66" value="" style="endArrow=none;html=1;rounded=0;entryX=0;entryY=0.5;entryDx=0;entryDy=0;" edge="1" parent="1" target="WjLnyKZmsit7DUfsPy70-3">
          <mxGeometry width="50" height="50" relative="1" as="geometry">
            <mxPoint x="160" y="100" as="sourcePoint" />
            <mxPoint x="440" y="190" as="targetPoint" />
          </mxGeometry>
        </mxCell>
        <mxCell id="WjLnyKZmsit7DUfsPy70-67" value="" style="endArrow=none;html=1;rounded=0;entryX=0;entryY=0.5;entryDx=0;entryDy=0;" edge="1" parent="1" target="WjLnyKZmsit7DUfsPy70-10">
          <mxGeometry width="50" height="50" relative="1" as="geometry">
            <mxPoint x="160" y="130" as="sourcePoint" />
            <mxPoint x="440" y="190" as="targetPoint" />
          </mxGeometry>
        </mxCell>
        <mxCell id="WjLnyKZmsit7DUfsPy70-68" value="" style="endArrow=none;html=1;rounded=0;entryX=0;entryY=0.5;entryDx=0;entryDy=0;" edge="1" parent="1" target="WjLnyKZmsit7DUfsPy70-12">
          <mxGeometry width="50" height="50" relative="1" as="geometry">
            <mxPoint x="160" y="290" as="sourcePoint" />
            <mxPoint x="440" y="300" as="targetPoint" />
          </mxGeometry>
        </mxCell>
        <mxCell id="WjLnyKZmsit7DUfsPy70-69" value="" style="endArrow=none;html=1;rounded=0;entryX=0;entryY=0.5;entryDx=0;entryDy=0;" edge="1" parent="1" target="WjLnyKZmsit7DUfsPy70-15">
          <mxGeometry width="50" height="50" relative="1" as="geometry">
            <mxPoint x="160" y="340" as="sourcePoint" />
            <mxPoint x="440" y="300" as="targetPoint" />
          </mxGeometry>
        </mxCell>
        <mxCell id="WjLnyKZmsit7DUfsPy70-70" value="" style="endArrow=none;html=1;rounded=0;entryX=0;entryY=0.5;entryDx=0;entryDy=0;" edge="1" parent="1" target="WjLnyKZmsit7DUfsPy70-18">
          <mxGeometry width="50" height="50" relative="1" as="geometry">
            <mxPoint x="170" y="430" as="sourcePoint" />
            <mxPoint x="440" y="420" as="targetPoint" />
          </mxGeometry>
        </mxCell>
        <mxCell id="WjLnyKZmsit7DUfsPy70-71" value="" style="endArrow=none;html=1;rounded=0;entryX=0;entryY=0.5;entryDx=0;entryDy=0;" edge="1" parent="1" target="WjLnyKZmsit7DUfsPy70-21">
          <mxGeometry width="50" height="50" relative="1" as="geometry">
            <mxPoint x="170" y="450" as="sourcePoint" />
            <mxPoint x="440" y="420" as="targetPoint" />
          </mxGeometry>
        </mxCell>
        <mxCell id="WjLnyKZmsit7DUfsPy70-72" value="" style="endArrow=none;html=1;rounded=0;entryX=0;entryY=0.5;entryDx=0;entryDy=0;" edge="1" parent="1" target="WjLnyKZmsit7DUfsPy70-22">
          <mxGeometry width="50" height="50" relative="1" as="geometry">
            <mxPoint x="170" y="470" as="sourcePoint" />
            <mxPoint x="440" y="420" as="targetPoint" />
          </mxGeometry>
        </mxCell>
      </root>
    </mxGraphModel>
  </diagram>
</mxfile>
